<mxfile host="app.diagrams.net" modified="2021-03-02T08:24:34.719Z" agent="5.0 (Windows NT 10.0; Win64; x64) AppleWebKit/537.36 (KHTML, like Gecko) Chrome/88.0.4324.190 Safari/537.36" etag="8OxE7iyRr2834nNRyx42" version="14.4.3" type="github">
  <diagram id="5f9WbeIAZJPQqAwRjFFF" name="第 1 页">
    <mxGraphModel dx="1422" dy="762" grid="1" gridSize="10" guides="1" tooltips="1" connect="1" arrows="1" fold="1" page="1" pageScale="1" pageWidth="827" pageHeight="1169" math="0" shadow="0">
      <root>
        <mxCell id="0" />
        <mxCell id="1" parent="0" />
        <mxCell id="Pn9AdvauhRFKOjBA6dNd-12" style="edgeStyle=orthogonalEdgeStyle;rounded=0;orthogonalLoop=1;jettySize=auto;html=1;" edge="1" parent="1" source="Pn9AdvauhRFKOjBA6dNd-1" target="Pn9AdvauhRFKOjBA6dNd-11">
          <mxGeometry relative="1" as="geometry">
            <Array as="points">
              <mxPoint x="120" y="270" />
              <mxPoint x="640" y="270" />
            </Array>
          </mxGeometry>
        </mxCell>
        <mxCell id="Pn9AdvauhRFKOjBA6dNd-1" value="&lt;div&gt;&lt;span style=&quot;font-size: 10.56pt&quot;&gt;DL/UL MU-MIMO 技术&amp;nbsp;&lt;/span&gt;&lt;/div&gt;" style="whiteSpace=wrap;html=1;" vertex="1" parent="1">
          <mxGeometry x="60" y="130" width="120" height="60" as="geometry" />
        </mxCell>
        <mxCell id="Pn9AdvauhRFKOjBA6dNd-21" style="edgeStyle=orthogonalEdgeStyle;rounded=0;orthogonalLoop=1;jettySize=auto;html=1;exitX=0.5;exitY=1;exitDx=0;exitDy=0;" edge="1" parent="1" source="Pn9AdvauhRFKOjBA6dNd-2">
          <mxGeometry relative="1" as="geometry">
            <mxPoint x="300" y="270" as="targetPoint" />
          </mxGeometry>
        </mxCell>
        <mxCell id="Pn9AdvauhRFKOjBA6dNd-2" value="&lt;div&gt;&lt;span style=&quot;font-size: 10.56pt&quot;&gt;OFDMA 频分复&lt;br/&gt;&lt;/span&gt;&lt;/div&gt;&lt;div&gt;&lt;span style=&quot;font-size: 10.56pt&quot;&gt;用&lt;/span&gt;&lt;/div&gt;" style="whiteSpace=wrap;html=1;" vertex="1" parent="1">
          <mxGeometry x="240" y="130" width="120" height="60" as="geometry" />
        </mxCell>
        <mxCell id="Pn9AdvauhRFKOjBA6dNd-22" style="edgeStyle=orthogonalEdgeStyle;rounded=0;orthogonalLoop=1;jettySize=auto;html=1;" edge="1" parent="1" source="Pn9AdvauhRFKOjBA6dNd-4">
          <mxGeometry relative="1" as="geometry">
            <mxPoint x="480" y="270" as="targetPoint" />
          </mxGeometry>
        </mxCell>
        <mxCell id="Pn9AdvauhRFKOjBA6dNd-4" value="&lt;div&gt;&lt;span style=&quot;font-size: 10.56pt&quot;&gt;更高阶的调制技术 (1024-QAM)&amp;nbsp;&lt;/span&gt;&lt;/div&gt;" style="whiteSpace=wrap;html=1;" vertex="1" parent="1">
          <mxGeometry x="420" y="130" width="120" height="60" as="geometry" />
        </mxCell>
        <mxCell id="Pn9AdvauhRFKOjBA6dNd-18" style="edgeStyle=orthogonalEdgeStyle;rounded=0;orthogonalLoop=1;jettySize=auto;html=1;entryX=0.5;entryY=0;entryDx=0;entryDy=0;" edge="1" parent="1" source="Pn9AdvauhRFKOjBA6dNd-6" target="Pn9AdvauhRFKOjBA6dNd-11">
          <mxGeometry relative="1" as="geometry">
            <Array as="points">
              <mxPoint x="680" y="270" />
              <mxPoint x="640" y="270" />
            </Array>
          </mxGeometry>
        </mxCell>
        <mxCell id="Pn9AdvauhRFKOjBA6dNd-6" value="&lt;div&gt;&lt;span style=&quot;font-size: 10.56pt&quot;&gt;空分复用技术（SR） &amp;amp; BSS Coloring 着色机制&amp;nbsp;&lt;/span&gt;&lt;/div&gt;" style="whiteSpace=wrap;html=1;" vertex="1" parent="1">
          <mxGeometry x="620" y="130" width="120" height="60" as="geometry" />
        </mxCell>
        <mxCell id="Pn9AdvauhRFKOjBA6dNd-11" value="&lt;div&gt;&lt;span style=&quot;font-size: 10.56pt&quot;&gt;Wi-Fi 6(802.11ax)&lt;/span&gt;&lt;/div&gt;" style="rounded=1;whiteSpace=wrap;html=1;" vertex="1" parent="1">
          <mxGeometry x="580" y="350" width="120" height="60" as="geometry" />
        </mxCell>
        <mxCell id="Pn9AdvauhRFKOjBA6dNd-23" style="edgeStyle=orthogonalEdgeStyle;rounded=0;orthogonalLoop=1;jettySize=auto;html=1;" edge="1" parent="1" source="Pn9AdvauhRFKOjBA6dNd-19">
          <mxGeometry relative="1" as="geometry">
            <mxPoint x="680" y="270" as="targetPoint" />
            <Array as="points">
              <mxPoint x="880" y="270" />
            </Array>
          </mxGeometry>
        </mxCell>
        <mxCell id="Pn9AdvauhRFKOjBA6dNd-19" value="&lt;div&gt;&lt;span style=&quot;font-size: 10.56pt&quot;&gt;空分复用技术（SR） &amp;amp; BSS Coloring 着色机制&amp;nbsp;&lt;/span&gt;&lt;/div&gt;" style="whiteSpace=wrap;html=1;" vertex="1" parent="1">
          <mxGeometry x="820" y="130" width="120" height="60" as="geometry" />
        </mxCell>
        <mxCell id="Pn9AdvauhRFKOjBA6dNd-26" style="edgeStyle=orthogonalEdgeStyle;rounded=0;orthogonalLoop=1;jettySize=auto;html=1;exitX=0.5;exitY=1;exitDx=0;exitDy=0;" edge="1" parent="1" source="Pn9AdvauhRFKOjBA6dNd-24">
          <mxGeometry relative="1" as="geometry">
            <mxPoint x="880" y="270" as="targetPoint" />
            <Array as="points">
              <mxPoint x="1080" y="270" />
            </Array>
          </mxGeometry>
        </mxCell>
        <mxCell id="Pn9AdvauhRFKOjBA6dNd-24" value="&lt;div&gt;&lt;span style=&quot;font-size: 10.56pt&quot;&gt;扩展覆盖范围 (ER)&amp;nbsp;&lt;/span&gt;&lt;/div&gt;" style="whiteSpace=wrap;html=1;" vertex="1" parent="1">
          <mxGeometry x="1020" y="130" width="120" height="60" as="geometry" />
        </mxCell>
      </root>
    </mxGraphModel>
  </diagram>
</mxfile>
